<svg xmlns="http://www.w3.org/2000/svg" viewBox="0 0 2000 2000">
  <circle cx="1000" cy="1000" r="1000" fill="#2775CA"/>
  <path fill="#fff" d="M1275 1158.33c0-145.83-87.5-195.83-262.5-216.66-125-16.67-150-50-150-108.34s41.67-95.83 125-95.83c75 0 116.67 25 137.5 87.5 4.17 12.5 16.67 20.83 29.17 20.83h66.66c16.67 0 29.17-12.5 29.17-29.16v-4.17c-16.67-91.67-91.67-162.5-183.33-170.84V554.17c0-16.67-12.5-29.17-33.34-33.34h-62.5c-16.66 0-29.16 12.5-33.33 33.34v83.33c-125 16.67-204.17 100-204.17 204.17 0 137.5 83.34 191.66 258.34 212.5 116.66 20.83 154.16 45.83 154.16 112.5s-58.33 112.5-137.5 112.5c-108.33 0-145.83-45.84-158.33-108.34-4.17-16.66-16.67-25-29.17-25h-70.83c-16.67 0-29.17 12.5-29.17 29.17v4.17c16.67 104.16 83.34 179.16 212.5 200v87.5c0 16.66 12.5 29.16 33.33 33.33h62.5c16.67 0 29.17-12.5 33.34-33.33v-87.5c125-20.84 208.33-108.34 208.33-216.67z"/>
</svg>
