<svg xmlns="http://www.w3.org/2000/svg" viewBox="0 0 400 400">
  <circle cx="200" cy="200" r="200" fill="#3396FF"/>
  <path fill="#fff" d="M122.5 200c0-43.1 35-78 78-78h0c20.9 0 40.9 8.3 55.6 23l27.7-27.7c-21.5-21.5-50.7-33.6-81.1-33.6h0c-64.4 0-116.6 52.2-116.6 116.6s52.2 116.6 116.6 116.6c31.7 0 62.1-12.9 84.1-35.7l-28.4-26.7c-14.9 15.4-35.3 24.1-56.8 24.1-43.1-.2-79.1-35.1-79.1-78z"/>
  <path fill="#fff" d="M278.4 200c0 43.1-35 78-78 78h0c-21 0-41.1-8.4-55.9-23.3l-27.7 27.7c21.5 21.6 50.8 33.7 81.3 33.7h0c64.4 0 116.6-52.2 116.6-116.6S262.3 83.2 198 83.2c-31.8 0-62.2 13-84.2 35.8l28.5 26.7c14.9-15.4 35.4-24.2 56.9-24.2 43 0 79.2 35.4 79.2 78.5z"/>
</svg>
